<?xml version="1.0" encoding="UTF-8" standalone="no"?><!DOCTYPE svg PUBLIC "-//W3C//DTD SVG 1.1//EN" "http://www.w3.org/Graphics/SVG/1.1/DTD/svg11.dtd"><svg width="100%" height="100%" viewBox="0 0 800 600" version="1.1" xmlns="http://www.w3.org/2000/svg" xmlns:xlink="http://www.w3.org/1999/xlink" xml:space="preserve" xmlns:serif="http://www.serif.com/" style="fill-rule:evenodd;clip-rule:evenodd;stroke-linejoin:round;stroke-miterlimit:2;"><path d="M331.596,130.519c94.258,-0 170.784,76.525 170.784,170.783c-0,94.259 -76.526,170.784 -170.784,170.784c-94.258,0 -170.783,-76.525 -170.783,-170.784c-0,-94.258 76.525,-170.783 170.783,-170.783Zm0,85.392c47.129,-0 85.392,38.262 85.392,85.391c0,47.13 -38.263,85.392 -85.392,85.392c-47.129,0 -85.391,-38.262 -85.391,-85.392c-0,-47.129 38.262,-85.391 85.391,-85.391Z" style="fill:#004a85;"/><g><g transform="matrix(0.966025,-0.258447,0.258447,0.966025,-20.2248,-4.4958)"><text x="243.221px" y="215.52px" style="font-family:'Futura-Bold', 'Futura', sans-serif;font-weight:700;font-size:48px;">P</text></g><g transform="matrix(0.991492,-0.130165,0.130165,0.991492,-5.38818,-1.5739)"><text x="287.198px" y="173.363px" style="font-family:'Futura-Bold', 'Futura', sans-serif;font-weight:700;font-size:48px;">l</text></g><g transform="matrix(0.999975,0.00713526,-0.00713526,0.999975,-0.0160645,-0.00675413)"><text x="317.409px" y="128.152px" style="font-family:'Futura-Bold', 'Futura', sans-serif;font-weight:700;font-size:48px;">a</text></g><g transform="matrix(0.984384,0.176036,-0.176036,0.984384,-10.0464,-5.95659)"><text x="378.761px" y="71.511px" style="font-family:'Futura-Bold', 'Futura', sans-serif;font-weight:700;font-size:48px;">c</text></g><g transform="matrix(0.9435,0.331373,-0.331373,0.9435,-34.7637,-28.3737)"><text x="439.291px" y="18.832px" style="font-family:'Futura-Bold', 'Futura', sans-serif;font-weight:700;font-size:48px;">e</text></g><g transform="matrix(0.866419,0.499318,-0.499318,0.866419,-73.8751,-87.3639)"><text x="529.204px" y="-36.498px" style="font-family:'Futura-Bold', 'Futura', sans-serif;font-weight:700;font-size:48px;">h</text></g><g transform="matrix(0.755809,0.654792,-0.654792,0.755809,-107.413,-197.211)"><text x="641.34px" y="-81.433px" style="font-family:'Futura-Bold', 'Futura', sans-serif;font-weight:700;font-size:48px;">o</text></g><g transform="matrix(0.657042,0.753854,-0.753854,0.657042,-110.347,-318.334)"><text x="750.258px" y="-96.786px" style="font-family:'Futura-Bold', 'Futura', sans-serif;font-weight:700;font-size:48px;">l</text></g><g transform="matrix(0.547125,0.837051,-0.837051,0.547125,-83.4426,-449.38)"><text x="839.274px" y="-107.466px" style="font-family:'Futura-Bold', 'Futura', sans-serif;font-weight:700;font-size:48px;">d</text></g><g transform="matrix(0.376693,0.926338,-0.926338,0.376693,29.8459,-663.495)"><text x="991.969px" y="-86.901px" style="font-family:'Futura-Bold', 'Futura', sans-serif;font-weight:700;font-size:48px;">e</text></g><g transform="matrix(0.220577,0.97537,-0.97537,0.220577,212.195,-839.879)"><text x="1127.1px" y="-35.556px" style="font-family:'Futura-Bold', 'Futura', sans-serif;font-weight:700;font-size:48px;">r</text></g><g transform="matrix(-0.0142695,0.999898,-0.999898,-0.0142695,602.052,-1010.98)"><text x="1301.92px" y="80.919px" style="font-family:'Futura-Bold', 'Futura', sans-serif;font-weight:700;font-size:48px;">L</text></g><g transform="matrix(-0.177582,0.984106,-0.984106,-0.177582,940.883,-1033.15)"><text x="1404.79px" y="191.819px" style="font-family:'Futura-Bold', 'Futura', sans-serif;font-weight:700;font-size:48px;">o</text></g><g transform="matrix(-0.36493,0.931035,-0.931035,-0.36493,1380.18,-915.11)"><text x="1498.8px" y="361.548px" style="font-family:'Futura-Bold', 'Futura', sans-serif;font-weight:700;font-size:48px;">g</text></g><g transform="matrix(-0.542398,0.840122,-0.840122,-0.542398,1794.2,-619.879)"><text x="1550.21px" y="558.341px" style="font-family:'Futura-Bold', 'Futura', sans-serif;font-weight:700;font-size:48px;">o</text></g></g><path d="M353.665,187.889c-49.169,-0 -89.029,39.859 -89.029,89.028c0,49.136 39.893,89.028 89.029,89.028c49.168,-0 89.028,-39.859 89.028,-89.028l-89.028,-0l-0,-89.028Z" style="fill:#008343;"/><path d="M237.73,137.894l20.303,14.751l-10.151,13.973l16.425,5.337l-7.755,23.868l-16.425,-5.337l-0,17.27l-25.097,0l0,-17.27l-16.425,5.337l-7.755,-23.868l16.425,-5.337l-10.151,-13.973l20.303,-14.751l10.152,13.973l10.151,-13.973Z" style="fill:#008343;"/><path d="M270.902,431.816l0,13.151l-20.231,-20.232l20.231,-20.231l0,13.15l121.389,0l-0,-13.15l20.231,20.231l-20.231,20.232l-0,-13.151l-121.389,0Z" style="fill:#8c7aa8;"/></svg>